<?xml version="1.0" encoding="UTF-8" standalone="no"?>
<!DOCTYPE svg PUBLIC "-//W3C//DTD SVG 1.1//EN" "http://www.w3.org/Graphics/SVG/1.1/DTD/svg11.dtd">
<svg width="100%" height="100%" viewBox="0 0 1080 608" version="1.1" xmlns="http://www.w3.org/2000/svg" xmlns:xlink="http://www.w3.org/1999/xlink" xml:space="preserve" xmlns:serif="http://www.serif.com/" style="fill-rule:evenodd;clip-rule:evenodd;stroke-linejoin:round;stroke-miterlimit:2;">
    <g transform="matrix(0.17487,0,0,0.17487,0,0.0751295)">
        <path d="M5842.53,430.659C5829.46,424.774 5816.49,418.732 5803.36,412.977C5730.49,381.219 5656.71,351.792 5582.41,323.511C5441.96,269.982 5299.31,222.065 5154.56,181.375C5086.15,162.196 5017.23,144.5 4947.91,128.198C4743.26,80.086 4535.11,45.321 4324.74,24.162C4186.48,10.256 4047.15,2.091 3907.23,0.36C3854.37,-0.252 3801.49,-0.122 3748.47,1.05C3681.05,2.495 3613.53,5.594 3545.93,9.969C3374.67,21.037 3202.88,41.453 3031.12,71.948C2920.55,91.61 2811.7,115.073 2704.8,142.13C2662.24,152.899 2619.95,164.318 2578.04,176.219C2203.73,282.521 1854.3,433.941 1533.95,623.498C1445.02,676.089 1358.31,731.61 1274,789.969C1363.13,740.894 1454.47,694.956 1547.67,651.753C1885.2,495.399 2249.12,378.42 2635.46,307.365C2644.8,305.633 2654.03,303.797 2663.31,302.131C2676.57,299.787 2689.84,297.547 2703.07,295.308C2993.18,246.375 3283.27,225.907 3570.58,230.946C3631.41,232.013 3692.17,233.81 3752.71,237.196C3801.75,239.917 3850.67,243.407 3899.46,247.599C3998.69,256.193 4097.44,267.873 4195.63,282.443C4244.48,289.683 4293.11,297.977 4341.65,306.753C4428.89,322.417 4515.55,340.529 4601.63,360.816C4685.1,380.555 4768.07,402.378 4850.31,426.401C4882.78,435.842 4915.1,445.581 4947.35,455.776C4969.12,462.625 4990.84,469.774 5012.45,476.909C5020.77,479.604 5028.96,482.586 5037.24,485.36C5163.21,527.495 5287.44,574.774 5409.8,626.597C5472.71,653.303 5535.32,680.776 5597.11,709.943C5619.81,720.646 5642.21,731.883 5664.67,742.951C5770.11,794.8 5873.64,850.581 5975.49,909.5L6175.2,594.409C6066.2,535.92 5955.4,481.037 5842.53,430.659L5842.53,430.659Z" style="fill:rgb(204,7,30);fill-rule:nonzero;"/>
    </g>
    <g transform="matrix(0.17487,0,0,0.17487,0,0.0751295)">
        <path d="M336.354,3144.92L335.13,3144.92L228.776,3469.74L173.464,3469.74L71.966,3144.92L70.755,3144.92L70.755,3469.74L0.247,3469.74L0.247,3080.18L116.328,3080.18L203.854,3370.95L205.078,3370.95L294.414,3080.18L406.849,3080.18L406.849,3469.74L336.354,3469.74L336.354,3144.92Z" style="fill:white;fill-rule:nonzero;"/>
    </g>
    <g transform="matrix(0.17487,0,0,0.17487,0,0.0751295)">
        <path d="M692.526,3321.27L639.049,3139.34L637.839,3139.34L579.479,3321.27L692.526,3321.27ZM708.945,3375.96L563.086,3375.96L532.695,3469.73L454.896,3469.73L597.109,3080.18L682.201,3080.18L818.945,3469.73L738.724,3469.73L708.945,3375.96Z" style="fill:white;fill-rule:nonzero;"/>
    </g>
    <g transform="matrix(0.17487,0,0,0.17487,0,0.0751295)">
        <path d="M867.591,3080.18L945.391,3080.18L945.391,3245.38L947.214,3245.38L1068.16,3080.18L1157.5,3080.18L1013.46,3263.79L1169.05,3469.74L1074.84,3469.74L947.214,3286.68L945.391,3286.68L945.391,3469.74L867.591,3469.74L867.591,3080.18Z" style="fill:white;fill-rule:nonzero;"/>
    </g>
    <g transform="matrix(0.17487,0,0,0.17487,0,0.0751295)">
        <rect x="1217.08" y="3080.18" width="77.799" height="389.557" style="fill:white;"/>
    </g>
    <g transform="matrix(0.17487,0,0,0.17487,0,0.0751295)">
        <path d="M1384.84,3080.18L1477.22,3080.18L1618.23,3386.01L1619.45,3386.01L1619.45,3080.18L1689.93,3080.18L1689.93,3469.74L1596.95,3469.74L1456.56,3166.12L1455.35,3166.12L1455.35,3469.74L1384.84,3469.74L1384.84,3080.18Z" style="fill:white;fill-rule:nonzero;"/>
    </g>
    <g transform="matrix(0.17487,0,0,0.17487,0,0.0751295)">
        <path d="M1948.28,3251.52L2085.65,3251.52L2085.65,3455.22C2063.76,3465.83 2026.08,3475.31 1970.77,3475.31C1834.62,3475.31 1762.32,3390.5 1762.32,3274.96C1762.32,3159.44 1834.62,3074.59 1970.77,3074.59C2019.4,3074.59 2057.68,3084.63 2074.09,3091.34L2069.84,3155.53C2044.92,3141.56 2010.9,3131.52 1971.99,3131.52C1889.34,3131.52 1844.96,3194.03 1844.96,3274.96C1844.96,3362.57 1888.12,3418.38 1967.73,3418.38C1985.96,3418.38 2002.37,3415.03 2012.71,3411.13L2012.71,3306.21L1948.28,3306.21L1948.28,3251.52Z" style="fill:white;fill-rule:nonzero;"/>
    </g>
    <g transform="matrix(0.17487,0,0,0.17487,0,0.0751295)">
        <path d="M2257.72,3080.18L2341.59,3080.18L2427.29,3380.43L2428.5,3380.43L2516.63,3080.18L2596.85,3080.18L2467.39,3469.74L2385.35,3469.74L2257.72,3080.18Z" style="fill:white;fill-rule:nonzero;"/>
    </g>
    <g transform="matrix(0.17487,0,0,0.17487,0,0.0751295)">
        <rect x="2647.32" y="3080.18" width="77.8" height="389.557" style="fill:white;"/>
    </g>
    <g transform="matrix(0.17487,0,0,0.17487,0,0.0751295)">
        <path d="M2810.22,3394.38C2825.42,3403.31 2858.85,3418.38 2900.17,3418.38C2934.2,3418.38 2964.6,3401.07 2964.6,3362.01C2964.6,3334.12 2946.97,3321.83 2909.3,3302.86L2869.78,3282.77C2827.85,3261.56 2800.49,3230.87 2800.49,3180.63C2800.49,3110.87 2863.1,3074.59 2934.2,3074.59C2979.18,3074.59 3010.79,3085.19 3022.94,3088.55L3019.3,3148.26C3000.45,3141.56 2975.53,3131.52 2939.69,3131.52C2900.78,3131.52 2880.72,3150.5 2880.72,3177.28C2880.72,3206.31 2901.99,3217.47 2925.69,3229.74L2971.28,3253.18C3021.11,3278.85 3044.82,3303.42 3044.82,3358.12C3044.82,3437.35 2983.44,3475.31 2902.6,3475.31C2860.05,3475.31 2827.24,3469.73 2805.96,3458L2810.22,3394.38Z" style="fill:white;fill-rule:nonzero;"/>
    </g>
    <g transform="matrix(0.17487,0,0,0.17487,0,0.0751295)">
        <rect x="3120.21" y="3080.18" width="77.786" height="389.557" style="fill:white;"/>
    </g>
    <g transform="matrix(0.17487,0,0,0.17487,0,0.0751295)">
        <path d="M3440.51,3420.62C3489.76,3420.62 3529.26,3382.11 3529.26,3274.96C3529.26,3167.8 3489.76,3129.29 3440.51,3129.29C3391.28,3129.29 3351.79,3167.8 3351.79,3274.96C3351.79,3382.11 3391.28,3420.62 3440.51,3420.62ZM3440.51,3074.59C3528.65,3074.59 3609.48,3134.88 3609.48,3274.96C3609.48,3415.03 3528.65,3475.31 3440.51,3475.31C3352.39,3475.31 3271.56,3415.03 3271.56,3274.96C3271.56,3134.88 3352.39,3074.59 3440.51,3074.59Z" style="fill:white;fill-rule:nonzero;"/>
    </g>
    <g transform="matrix(0.17487,0,0,0.17487,0,0.0751295)">
        <path d="M3681.84,3080.18L3774.21,3080.18L3915.21,3386.01L3916.44,3386.01L3916.44,3080.18L3986.93,3080.18L3986.93,3469.74L3893.95,3469.74L3753.55,3166.12L3752.35,3166.12L3752.35,3469.74L3681.84,3469.74L3681.84,3080.18Z" style="fill:white;fill-rule:nonzero;"/>
    </g>
    <g transform="matrix(0.17487,0,0,0.17487,0,0.0751295)">
        <path d="M4070.85,3394.38C4086.05,3403.31 4119.47,3418.38 4160.8,3418.38C4194.82,3418.38 4225.21,3401.07 4225.21,3362.01C4225.21,3334.12 4207.6,3321.83 4169.91,3302.86L4130.41,3282.77C4088.47,3261.56 4061.12,3230.87 4061.12,3180.63C4061.12,3110.87 4123.72,3074.59 4194.82,3074.59C4239.8,3074.59 4271.41,3085.19 4283.57,3088.55L4279.91,3148.26C4261.07,3141.56 4236.16,3131.52 4200.3,3131.52C4161.41,3131.52 4141.35,3150.5 4141.35,3177.28C4141.35,3206.31 4162.61,3217.47 4186.32,3229.74L4231.9,3253.18C4281.74,3278.85 4305.43,3303.42 4305.43,3358.12C4305.43,3437.35 4244.05,3475.31 4163.22,3475.31C4120.68,3475.31 4087.86,3469.73 4066.58,3458L4070.85,3394.38Z" style="fill:white;fill-rule:nonzero;"/>
    </g>
    <g transform="matrix(0.17487,0,0,0.17487,0,0.0751295)">
        <path d="M4713.92,3150.5L4712.72,3150.5L4645.86,3469.73L4554.09,3469.73L4468.39,3080.17L4541.32,3080.17L4600.89,3380.42L4602.08,3380.42L4665.91,3080.17L4760.72,3080.17L4823.93,3380.42L4825.14,3380.42L4887.14,3080.17L4957.64,3080.17L4870.12,3469.73L4777.14,3469.73L4713.92,3150.5Z" style="fill:white;fill-rule:nonzero;"/>
    </g>
    <g transform="matrix(0.17487,0,0,0.17487,0,0.0751295)">
        <path d="M5152.27,3420.62C5201.52,3420.62 5241.02,3382.11 5241.02,3274.96C5241.02,3167.8 5201.52,3129.29 5152.27,3129.29C5103.05,3129.29 5063.55,3167.8 5063.55,3274.96C5063.55,3382.11 5103.05,3420.62 5152.27,3420.62ZM5152.27,3074.59C5240.41,3074.59 5321.24,3134.88 5321.24,3274.96C5321.24,3415.03 5240.41,3475.31 5152.27,3475.31C5064.16,3475.31 4983.32,3415.03 4983.32,3274.96C4983.32,3134.88 5064.16,3074.59 5152.27,3074.59Z" style="fill:white;fill-rule:nonzero;"/>
    </g>
    <g transform="matrix(0.17487,0,0,0.17487,0,0.0751295)">
        <path d="M5499.95,3249.84C5541.28,3249.84 5569.23,3230.31 5569.23,3190.69C5569.23,3146.03 5543.71,3134.88 5499.95,3134.88L5468.35,3134.88L5468.35,3249.84L5499.95,3249.84ZM5390.55,3080.18L5523.05,3080.18C5598.41,3080.18 5649.47,3111.43 5649.47,3182.86C5649.47,3233.66 5614.82,3267.7 5567.41,3274.4L5567.41,3276.08C5583.22,3278.3 5600.85,3285 5614.21,3321.27L5669.52,3469.74L5586.86,3469.74L5544.94,3343.04C5534.6,3312.35 5514.55,3302.3 5485.97,3302.3L5468.35,3302.3L5468.35,3469.74L5390.55,3469.74L5390.55,3080.18Z" style="fill:white;fill-rule:nonzero;"/>
    </g>
    <g transform="matrix(0.17487,0,0,0.17487,0,0.0751295)">
        <path d="M5732.15,3080.18L5809.94,3080.18L5809.94,3245.38L5811.76,3245.38L5932.71,3080.18L6022.05,3080.18L5878.01,3263.79L6033.6,3469.74L5939.4,3469.74L5811.76,3286.68L5809.94,3286.68L5809.94,3469.74L5732.15,3469.74L5732.15,3080.18Z" style="fill:white;fill-rule:nonzero;"/>
    </g>
    <g transform="matrix(0.17487,0,0,0.17487,0,0.0751295)">
        <rect x="6078.59" y="3397.18" width="72.93" height="72.552" style="fill:white;"/>
    </g>
    <g transform="matrix(0.17487,0,0,0.17487,0,0.0751295)">
        <path d="M1414.49,1621.04C1429.92,1562.82 1420.92,1511.83 1387.33,1468.15C1353.79,1424.45 1282.93,1366.27 1158.19,1366.35C1063.55,1366.38 980.011,1385.22 907.706,1422.85C835.311,1460.55 791.417,1508.44 775.949,1566.72L585.623,2283.97C567.589,2352 582.98,2407.21 632.016,2449.61C680.936,2492.08 754.868,2513.27 853.904,2513.27C965.701,2513.24 1053.54,2490.12 1117.45,2443.96C1181.3,2397.88 1223.21,2337.12 1243.17,2261.9L1414.49,1621.04ZM556.782,579.98L1039.57,579.98L846.248,1300.76C921.222,1246.74 1018.92,1214.71 1111.55,1188.73C1204.11,1162.82 1302.59,1151 1409.5,1155.72C1543.68,1161.65 1755.25,1229.39 1833.64,1364C1889.49,1459.88 1860.17,1544.62 1832.78,1667.04L1698.1,2199.99C1673.8,2290.81 1647.26,2363.34 1618.63,2417.32C1589.84,2471.43 1554.59,2516.87 1512.71,2553.61C1392.26,2657.43 1219.99,2709.33 995.649,2709.33C685.675,2709.33 527.589,2536.32 527.589,2536.32L482.732,2689.88L-0.002,2689.88L556.782,579.976L556.782,579.98Z" style="fill:white;fill-rule:nonzero;"/>
    </g>
    <g transform="matrix(0.17487,0,0,0.17487,0,0.0751295)">
        <path d="M5801.22,1182.05L5311.28,1182.05L4608.08,2377L4569.1,2019.87L4477.52,1182.05L4030.22,1182.05L4280.99,2689.13L4835.8,2689.13L5801.22,1182.05L5801.22,1182.05Z" style="fill:white;fill-rule:nonzero;"/>
    </g>
    <g transform="matrix(0.17487,0,0,0.17487,0,0.0751295)">
        <path d="M3395.12,1621.04L3223.82,2261.9C3203.83,2337.12 3161.92,2397.88 3098.06,2443.96C3034.2,2490.12 2946.36,2513.24 2834.48,2513.27C2735.49,2513.27 2661.55,2492.08 2612.67,2449.61C2563.62,2407.21 2548.23,2352 2566.29,2283.97L2756.59,1566.72C2772.06,1508.44 2815.9,1460.55 2888.38,1422.85C2960.63,1385.22 3044.2,1366.38 3138.83,1366.35C3263.57,1366.27 3334.37,1424.45 3367.96,1468.15C3401.53,1511.83 3410.56,1562.82 3395.12,1621.04ZM3814.3,1364.01C3809.63,1356.03 3804.49,1348.35 3798.92,1340.84C3795.08,1335.67 3790.84,1330.71 3786.62,1325.75C3784.91,1323.75 3783.36,1321.69 3781.61,1319.75C3775.82,1313.27 3769.62,1307.04 3763.19,1300.98C3762.96,1300.74 3762.78,1300.51 3762.5,1300.29C3699.35,1240.65 3608.82,1199.83 3522.56,1177.09C3520.85,1176.64 3519.25,1176.22 3517.54,1175.79C3503.28,1172.16 3489.09,1168.85 3475.22,1166.24C3475.03,1166.16 3474.72,1166.11 3474.47,1166.05C3460.86,1163.44 3447.66,1161.46 3434.74,1159.78C3431.97,1159.41 3429.25,1159.11 3426.53,1158.79C3413.96,1157.38 3401.66,1156.26 3390.08,1155.73C3283.19,1151 3184.78,1162.82 3092.2,1188.74C2999.56,1214.71 2901.88,1246.74 2826.87,1300.77L3020.21,579.985L2537.43,579.985L1980.59,2689.89L2463.36,2689.89L2508.22,2536.33C2508.22,2536.33 2666.27,2709.34 2976.24,2709.34C3200.63,2709.34 3372.89,2657.44 3493.31,2553.62C3535.2,2516.88 3570.45,2471.43 3599.21,2417.33C3627.84,2363.35 3654.42,2290.82 3678.73,2200L3808.71,1685.82L3813.41,1667.05C3840.73,1544.62 3870.13,1459.88 3814.3,1364.01L3814.3,1364.01Z" style="fill:white;fill-rule:nonzero;"/>
    </g>
</svg>
