<svg xmlns="http://www.w3.org/2000/svg" width="1315" height="168" viewBox="0 0 1315 168" fill="none" data-google-analytics-opt-out="">
<mask id="mask0_12848_1480" style="mask-type:luminance" maskUnits="userSpaceOnUse" x="0" y="0" width="171" height="149">
<path d="M170.501 0H0V148.472H170.501V0Z" fill="white"/>
</mask>
<g mask="url(#mask0_12848_1480)">
<path d="M153.147 68.5447L136.575 78.1163V48.9541L93.9498 24.3541V5.03182L85.2727 0L76.5956 5.03182V24.3317L33.9704 48.9317V78.094L17.3989 68.5223V39.3601L0 29.3635V78.586L33.9481 98.1766V148.472L51.3023 138.453V108.195L85.2504 127.786L119.198 108.195V138.453L136.553 148.472V98.1766L170.501 78.586V29.3635L153.147 39.3825V68.5447ZM76.5733 102.739L51.3023 88.1576V69.0143L76.5733 83.5955V102.739ZM59.9794 53.9636L85.2504 39.3825L110.521 53.9636L85.2504 68.5447L59.9794 53.9636ZM119.198 88.1576L93.9275 102.739V83.5955L119.198 69.0143V88.1576Z" fill="#ffffff"/>
<path d="M153.147 68.5447L136.575 78.1163V48.9541L93.9498 24.3541V5.03182L85.2727 0L76.5956 5.03182V24.3317L33.9704 48.9317V78.094L17.3989 68.5223V39.3601L0 29.3635V78.586L33.9481 98.1766V148.472L51.3023 138.453V108.195L85.2504 127.786L119.198 108.195V138.453L136.553 148.472V98.1766L170.501 78.586V29.3635L153.147 39.3825V68.5447ZM76.5733 102.739L51.3023 88.1576V69.0143L76.5733 83.5955V102.739ZM59.9794 53.9636L85.2504 39.3825L110.521 53.9636L85.2504 68.5447L59.9794 53.9636ZM119.198 88.1576L93.9275 102.739V83.5955L119.198 69.0143V88.1576Z" fill="#ffffff"/>
<path d="M153.147 68.5447L136.575 78.1163V48.9541L93.9498 24.3541V5.03182L85.2727 0L76.5956 5.03182V24.3317L33.9704 48.9317V78.094L17.3989 68.5223V39.3601L0 29.3635V78.586L33.9481 98.1766V148.472L51.3023 138.453V108.195L85.2504 127.786L119.198 108.195V138.453L136.553 148.472V98.1766L170.501 78.586V29.3635L153.147 39.3825V68.5447ZM76.5733 102.739L51.3023 88.1576V69.0143L76.5733 83.5955V102.739ZM59.9794 53.9636L85.2504 39.3825L110.521 53.9636L85.2504 68.5447L59.9794 53.9636ZM119.198 88.1576L93.9275 102.739V83.5955L119.198 69.0143V88.1576Z" fill="#ffffff"/>
<path d="M153.147 68.5447L136.575 78.1163V48.9541L93.9498 24.3541V5.03182L85.2727 0L76.5956 5.03182V24.3317L33.9704 48.9317V78.094L17.3989 68.5223V39.3601L0 29.3635V78.586L33.9481 98.1766V148.472L51.3023 138.453V108.195L85.2504 127.786L119.198 108.195V138.453L136.553 148.472V98.1766L170.501 78.586V29.3635L153.147 39.3825V68.5447ZM76.5733 102.739L51.3023 88.1576V69.0143L76.5733 83.5955V102.739ZM59.9794 53.9636L85.2504 39.3825L110.521 53.9636L85.2504 68.5447L59.9794 53.9636ZM119.198 88.1576L93.9275 102.739V83.5955L119.198 69.0143V88.1576Z" fill="#ffffff"/>
</g>
<path d="M257.358 131.237H239.244V57.8915H255.873L257.358 66.5029C261.07 60.4155 268.493 55.6644 279.035 55.6644C290.17 55.6644 297.891 61.1579 301.751 69.6208C305.463 61.1579 314.075 55.6644 325.21 55.6644C343.027 55.6644 352.826 66.3544 352.826 83.2803V131.237H334.861V88.0314C334.861 77.4899 329.219 71.9964 320.607 71.9964C311.847 71.9964 305.166 77.6383 305.166 89.6646V131.237H287.053V87.8829C287.053 77.6383 281.559 72.1449 272.948 72.1449C264.336 72.1449 257.358 77.7868 257.358 89.6646V131.237ZM400.451 133.167C378.625 133.167 363.333 117.281 363.333 94.5642C363.333 71.551 378.328 55.6644 399.857 55.6644C421.831 55.6644 435.787 70.3632 435.787 93.2279V98.7214L380.555 98.8699C381.892 111.787 388.721 118.32 400.748 118.32C410.695 118.32 417.228 114.46 419.307 107.482H436.084C432.966 123.517 419.604 133.167 400.451 133.167ZM400.005 70.5117C389.315 70.5117 382.782 76.3021 381.001 87.289H417.822C417.822 77.1929 410.844 70.5117 400.005 70.5117ZM443.157 92.931C443.157 71.551 457.114 55.5159 478.048 55.5159C489.035 55.5159 497.647 60.1186 501.953 67.9876L502.992 57.8915H519.769V127.525C519.769 152.023 505.07 167.316 481.315 167.316C460.232 167.316 445.83 155.29 443.603 135.691H461.717C462.904 145.194 470.179 150.836 481.315 150.836C493.787 150.836 501.804 142.967 501.804 130.792V118.617C497.201 125.447 488.145 129.752 477.603 129.752C456.817 129.752 443.157 114.163 443.157 92.931ZM461.42 92.4856C461.42 104.809 469.289 114.014 481.166 114.014C493.638 114.014 501.359 105.255 501.359 92.4856C501.359 80.0139 493.787 71.4025 481.166 71.4025C469.14 71.4025 461.42 80.4593 461.42 92.4856ZM557.371 133.167C541.781 133.167 532.279 124.111 532.279 110.303C532.279 96.7913 542.078 88.3284 559.45 86.9921L581.424 85.3589V83.7257C581.424 73.778 575.485 69.7693 566.279 69.7693C555.589 69.7693 549.65 74.2235 549.65 81.944H534.209C534.209 66.0575 547.275 55.6644 567.17 55.6644C586.917 55.6644 599.092 66.3544 599.092 86.6952V131.237H583.205L581.869 120.399C578.751 127.971 568.803 133.167 557.371 133.167ZM563.31 119.508C574.445 119.508 581.572 112.827 581.572 101.543V97.6821L566.279 98.8699C554.995 99.9092 550.69 103.621 550.69 109.56C550.69 116.241 555.144 119.508 563.31 119.508ZM669.297 131.237H610.057V116.39L646.581 73.0357H610.057V57.8915H669.297V72.8872L632.179 116.093H669.297V131.237ZM675.948 94.4157C675.948 71.551 692.429 55.8129 715.145 55.8129C737.861 55.8129 754.342 71.551 754.342 94.4157C754.342 117.281 737.861 133.019 715.145 133.019C692.429 133.019 675.948 117.281 675.948 94.4157ZM694.062 94.4157C694.062 107.779 702.673 116.835 715.145 116.835C727.617 116.835 736.228 107.779 736.228 94.4157C736.228 81.0532 727.617 71.9964 715.145 71.9964C702.673 71.9964 694.062 81.0532 694.062 94.4157ZM811.757 57.5945V74.3719H805.075C792.01 74.3719 783.844 81.3501 783.844 95.6035V131.237H765.73V58.04H782.805L783.844 68.73C786.962 61.4548 793.94 56.5552 803.739 56.5552C806.263 56.5552 808.787 56.8522 811.757 57.5945ZM848.723 133.167C827.491 133.167 814.277 117.578 814.277 94.8611C814.277 71.9964 827.64 55.6644 849.762 55.6644C860.007 55.6644 869.064 59.9701 873.666 67.2453V20.7734H891.631V131.237H875.002L873.815 119.805C869.36 128.268 859.858 133.167 848.723 133.167ZM852.732 116.538C865.352 116.538 873.518 107.482 873.518 94.2673C873.518 81.0532 865.352 71.8479 852.732 71.8479C840.111 71.8479 832.391 81.2017 832.391 94.2673C832.391 107.333 840.111 116.538 852.732 116.538Z" fill="#ffffff"/>
<path d="M921.34 132.869C916.291 132.869 911.986 128.712 911.986 123.813C911.986 118.765 916.291 114.459 921.34 114.459C926.388 114.459 930.693 118.765 930.693 123.813C930.693 128.712 926.388 132.869 921.34 132.869ZM942.381 111.044H952.18C952.18 119.358 958.416 124.555 968.512 124.555C979.647 124.555 986.18 119.804 986.18 112.083C986.18 106.144 983.211 102.729 974.748 100.651L962.425 97.5331C949.953 94.4152 943.866 87.8824 943.866 78.0833C943.866 65.4631 954.407 57.4456 969.848 57.4456C984.992 57.4456 994.792 65.76 995.237 79.1226H985.289C984.992 70.8081 979.202 65.9085 969.551 65.9085C959.455 65.9085 953.813 70.2142 953.813 77.9348C953.813 83.4283 957.674 87.2885 965.543 89.2187L977.866 92.3366C990.337 95.4545 995.979 101.245 995.979 111.638C995.979 124.555 984.992 133.018 968.66 133.018C952.477 133.018 942.381 124.406 942.381 111.044ZM1026.36 131.236H1016.26V67.9871H1001.86V59.3757H1016.26V36.6594H1026.36V59.3757H1040.76V67.9871H1026.36V131.236ZM1101.61 59.3757H1111.86V131.236H1102.95L1101.61 119.061C1097.6 127.376 1087.65 133.018 1076.37 133.018C1059.44 133.018 1050.24 121.437 1050.24 103.917V59.2272H1060.63V100.651C1060.63 117.725 1068.2 123.813 1079.64 123.813C1093.44 123.813 1101.61 114.607 1101.61 97.5331V59.3757ZM1156.99 133.018C1136.05 133.018 1123.73 116.983 1123.73 95.4545C1123.73 73.7775 1136.05 57.4456 1157.43 57.4456C1169.31 57.4456 1178.81 62.6421 1183.86 73.0352V23H1194.1V131.236H1185.2L1184.16 116.537C1179.11 127.673 1169.01 133.018 1156.99 133.018ZM1158.77 123.664C1174.51 123.664 1183.71 111.786 1183.71 95.1576C1183.71 78.6771 1174.51 66.6509 1158.77 66.6509C1143.18 66.6509 1134.12 78.6771 1134.12 95.1576C1134.12 111.786 1143.18 123.664 1158.77 123.664ZM1217.56 39.6289C1213.4 39.6289 1209.99 36.214 1209.99 32.0568C1209.99 27.8995 1213.4 24.3362 1217.56 24.3362C1221.72 24.3362 1225.28 27.8995 1225.28 32.0568C1225.28 36.214 1221.72 39.6289 1217.56 39.6289ZM1212.51 131.236V59.3757H1222.76V131.236H1212.51ZM1236.1 95.3061C1236.1 73.3321 1251.54 57.4456 1272.63 57.4456C1293.71 57.4456 1309.15 73.3321 1309.15 95.3061C1309.15 117.131 1293.71 133.018 1272.63 133.018C1251.54 133.018 1236.1 117.131 1236.1 95.3061ZM1246.5 95.1576C1246.5 112.083 1257.19 123.813 1272.63 123.813C1287.92 123.813 1298.76 112.083 1298.76 95.1576C1298.76 78.5287 1287.92 66.6509 1272.63 66.6509C1257.19 66.6509 1246.5 78.5287 1246.5 95.1576Z" fill="#ffffff"/>
<script xmlns=""/></svg>
